<?xml version="1.0"?>
<svg xmlns="http://www.w3.org/2000/svg" viewBox="0 0 24 24">
    <path d="M 6.40625 2.09375 L 5.59375 2.65625 L 6.4375 4 L 2.59375 11 L 2 11 L 2 12 L 2.59375 12 L 6.5625 19.21875 L 5.59375 20.71875 L 6.40625 21.28125 L 7.25 20 L 16.65625 20 L 17.46875 21.28125 L 18.3125 20.71875 L 17.25 19.0625 L 21.40625 12 L 22 12 L 22 11 L 21.40625 11 L 17.625 3.9375 L 18.40625 2.71875 L 17.59375 2.1875 L 17.0625 3 L 7 3 L 6.40625 2.09375 z M 8.25 5 L 15.78125 5 L 14.5 7 L 9.53125 7 L 8.25 5 z M 16.40625 5.8125 L 19.15625 11 L 17.3125 11 L 15.4375 7.3125 L 15.4375 7.28125 L 16.40625 5.8125 z M 7.6875 5.9375 L 8.5625 7.28125 L 6.71875 11 L 4.875 11 L 7.6875 5.9375 z M 10.1875 8 L 13.84375 8 L 12 10.84375 L 10.1875 8 z M 9.1875 8.25 L 10.9375 11 L 7.84375 11 L 9.1875 8.25 z M 14.8125 8.28125 L 16.1875 11 L 13.0625 11 L 14.8125 8.28125 z M 4.875 12 L 6.71875 12 L 8.5625 15.71875 L 8.6875 15.96875 L 8.6875 16 L 7.8125 17.3125 L 4.875 12 z M 7.84375 12 L 11.25 12 L 9.3125 15 L 7.84375 12 z M 12.71875 12 L 16.1875 12 L 14.6875 15 L 14.65625 15 L 12.71875 12 z M 17.3125 12 L 19.09375 12 L 16.0625 17.1875 L 15.3125 16 L 15.4375 15.71875 L 17.3125 12 z M 11.96875 12.65625 L 13.46875 15 L 10.46875 15 L 11.96875 12.65625 z M 9.8125 16 L 14.09375 16 L 15.375 18 L 8.53125 18 L 9.8125 16 z"/>
</svg>
